<svg xmlns="http://www.w3.org/2000/svg" width="774" height="494" viewBox="0 0 774 494">
<g stroke="#FFFFFF" stroke-width="12" stroke-linejoin="round" stroke-linecap="round">
<path d="M 628.75 475.06 C553.26,475.09 473.05,475.21 450.50,475.34 C427.95,475.46 318.92,475.44 208.20,475.28 L 6.90 475.00 L 7.50 462.50 L 21.75 462.22 C30.97,462.04 36.00,461.57 36.00,460.88 C36.00,460.30 37.78,455.70 39.96,450.66 C42.13,445.62 50.08,426.65 57.62,408.50 C73.80,369.56 77.58,360.49 85.92,340.50 C89.37,332.25 93.78,321.67 95.72,317.00 C97.66,312.33 101.65,302.88 104.59,296.00 C110.08,283.14 122.59,253.30 131.00,233.00 C133.62,226.68 138.49,214.92 141.82,206.89 C145.15,198.85 149.66,188.27 151.83,183.39 C154.00,178.50 157.45,170.45 159.51,165.50 C161.56,160.55 165.61,150.88 168.50,144.00 C171.40,137.12 175.88,126.44 178.48,120.25 C181.07,114.06 183.52,109.00 183.93,109.00 C184.34,109.00 189.55,119.01 195.50,131.25 C201.46,143.49 220.70,182.98 238.27,219.00 C255.83,255.02 270.60,285.51 271.08,286.75 C271.56,287.99 272.33,289.00 272.79,289.00 C273.25,289.00 278.66,279.21 284.82,267.25 C297.37,242.85 309.02,220.37 326.68,186.50 C333.27,173.85 344.70,151.91 352.08,137.75 C359.45,123.58 365.88,112.13 366.36,112.29 C366.84,112.45 371.14,119.99 375.91,129.04 C386.68,149.48 400.17,174.70 415.98,204.00 C422.66,216.38 429.56,229.52 431.31,233.21 C433.09,236.95 435.02,239.75 435.67,239.53 C436.43,239.26 436.69,239.99 436.40,241.56 C436.02,243.65 436.36,244.01 438.73,244.10 C444.02,244.29 430.09,247.97 404.90,253.03 C358.68,262.32 351.09,264.08 338.09,268.51 C314.30,276.61 300.94,284.82 296.24,294.23 C293.08,300.57 293.31,306.29 297.00,312.50 C300.67,318.69 300.94,323.79 297.75,326.71 C294.01,330.12 290.09,331.67 271.91,336.86 C236.97,346.83 228.12,351.95 224.93,364.02 C223.31,370.18 224.63,374.41 231.97,386.57 C236.46,394.02 237.97,397.45 237.98,400.30 C238.00,404.32 236.15,408.80 233.60,410.92 C231.97,412.27 230.39,409.43 224.51,394.50 C223.21,391.20 215.66,372.08 207.73,352.00 C199.80,331.92 191.12,309.88 188.45,303.00 L 188.27 302.54 C184.04,291.66 183.33,289.84 182.85,289.90 C182.75,289.91 182.66,290.01 182.54,290.12 C182.29,290.37 178.91,302.26 175.02,316.54 C171.14,330.82 165.66,350.83 162.86,361.00 C160.05,371.17 157.20,381.75 156.51,384.50 C155.83,387.25 154.08,393.55 152.62,398.50 C151.17,403.45 146.89,418.98 143.11,433.00 C139.33,447.02 135.92,459.29 135.52,460.25 C134.83,461.91 137.97,462.00 193.39,462.00 C230.65,462.00 252.00,461.65 252.00,461.03 C252.00,460.49 250.92,457.61 249.59,454.61 L 247.18 449.16 L 255.84 441.48 C272.66,426.57 277.97,418.28 277.99,406.95 C278.00,398.84 275.63,394.71 265.07,384.50 C257.10,376.78 255.00,373.58 255.00,369.13 C255.00,362.53 262.89,357.25 285.00,349.03 C318.69,336.51 325.80,328.85 318.57,312.87 C313.72,302.17 314.36,296.89 321.29,290.23 C331.46,280.44 351.84,273.34 395.27,264.43 C396.48,264.18 397.65,263.94 398.76,263.71 C420.61,259.22 424.14,258.50 425.26,259.82 C425.54,260.14 425.67,260.58 425.88,261.12 C426.41,262.43 431.37,277.91 436.90,295.51 C442.43,313.12 447.81,330.22 448.86,333.51 C453.03,346.57 462.27,375.80 470.02,400.50 C474.52,414.80 480.77,434.38 483.93,444.00 L 489.66 461.50 L 495.99 461.80 C500.37,462.01 502.57,461.70 503.14,460.80 C503.76,459.82 503.97,459.81 503.98,460.74 C504.00,461.70 515.46,461.97 556.25,461.97 C584.99,461.98 643.94,461.98 687.25,461.99 L 766.00 462.00 L 766.00 475.00 ZM 287.00 461.67 C287.00,461.85 310.88,462.00 340.07,462.00 C391.53,462.00 393.12,461.94 392.54,460.12 C392.21,459.09 388.83,443.00 385.02,424.37 C381.21,405.74 376.93,385.10 375.50,378.50 C374.08,371.90 369.54,349.62 365.43,329.00 C361.31,308.38 357.68,290.65 357.36,289.61 C356.78,287.74 348.68,307.35 313.41,396.00 C305.43,416.08 297.38,436.10 295.52,440.50 C291.41,450.27 287.00,461.23 287.00,461.67 ZM 149.00 219.54 C149.00,220.15 171.10,201.10 172.20,199.54 C172.42,199.22 172.58,198.97 172.77,198.93 C173.34,198.82 174.25,200.53 178.10,207.81 C178.26,208.11 178.43,208.42 178.60,208.74 C181.29,213.82 183.73,217.98 184.00,217.99 C184.27,217.99 187.65,212.97 191.50,206.83 C195.35,200.69 198.98,195.50 199.58,195.31 C200.17,195.11 205.77,199.67 212.03,205.44 C218.29,211.21 223.54,215.79 223.70,215.63 C223.87,215.46 220.24,207.72 215.65,198.41 C211.05,189.11 202.45,171.38 196.52,159.00 C190.60,146.62 185.44,136.16 185.07,135.75 C184.40,135.00 182.67,138.75 172.49,163.00 C152.40,210.87 149.00,219.06 149.00,219.54 ZM 330.09 204.43 C329.57,205.72 337.39,199.19 346.89,190.39 L 354.23 183.60 L 356.03 186.05 C363.34,196.02 367.65,201.41 368.56,201.70 C369.15,201.89 371.40,198.89 373.56,195.04 C375.73,191.20 378.02,188.04 378.64,188.02 C379.80,188.00 392.59,196.88 398.94,202.11 C400.84,203.67 402.54,204.79 402.73,204.61 C402.91,204.42 398.17,195.10 392.19,183.88 C386.20,172.67 378.03,157.31 374.02,149.75 C370.01,142.19 366.44,136.00 366.08,136.00 C365.56,136.00 331.76,200.27 330.09,204.43 Z" fill="rgb(8,19,44)"/>
<path d="M 763.02 462.00 L 687.25 461.99 C663.05,461.99 633.98,461.98 608.02,461.98 L 607.76 401.25 L 607.50 340.50 L 513.00 339.98 L 513.00 461.67 C506.42,461.48 503.99,461.18 503.98,460.74 C503.97,459.81 503.76,459.82 503.14,460.80 C502.77,461.39 501.72,461.72 499.84,461.83 C502.61,461.57 502.46,460.33 500.98,456.44 C499.32,452.08 487.05,412.34 486.58,409.81 C486.34,408.54 486.06,407.39 485.95,407.25 C485.84,407.11 485.66,406.66 485.54,406.25 C485.43,405.84 484.78,404.15 484.09,402.50 C483.41,400.85 481.35,394.55 479.50,388.50 C477.65,382.45 472.74,366.76 468.58,353.64 C464.42,340.52 461.24,329.42 461.52,328.98 C461.79,328.53 461.65,328.02 461.20,327.84 C460.16,327.40 440.06,264.31 439.43,259.50 C439.28,258.40 439.09,257.50 439.01,257.50 C438.92,257.50 438.70,256.75 438.53,255.84 C438.29,254.64 439.17,254.00 441.70,253.53 C443.63,253.17 446.62,252.27 448.35,251.53 C450.08,250.80 454.54,248.98 458.26,247.48 C467.22,243.88 477.83,236.31 481.52,230.89 C483.16,228.47 484.84,226.35 485.26,226.16 C485.67,225.98 485.76,225.42 485.45,224.91 C485.14,224.41 485.30,224.00 485.82,224.00 C486.35,224.00 486.64,220.21 486.49,215.25 C486.34,210.44 486.66,205.96 487.20,205.29 C487.73,204.63 487.89,203.64 487.55,203.08 C487.21,202.53 488.63,200.19 490.72,197.89 C494.45,193.75 503.27,188.98 509.84,187.54 L 513.00 186.84 L 513.00 281.00 L 608.00 281.00 L 608.00 175.13 L 603.50 168.55 C601.03,164.94 599.00,161.78 599.00,161.53 C599.00,159.57 589.26,151.82 578.34,145.10 C571.10,140.64 564.98,137.00 564.74,137.00 C564.49,137.00 562.20,140.15 559.64,144.00 C557.08,147.85 554.65,150.98 554.24,150.96 C553.83,150.94 551.07,147.79 548.10,143.96 C545.13,140.13 542.21,137.01 541.60,137.02 C541.00,137.03 539.38,137.92 538.00,139.00 C536.62,140.08 535.17,140.97 534.77,140.98 C534.36,140.99 530.70,143.36 526.62,146.25 C522.54,149.14 517.81,152.27 516.10,153.20 L 513.00 154.91 L 513.00 167.39 C513.00,178.41 512.80,179.92 511.25,180.37 C491.77,185.96 487.31,187.94 482.30,193.16 C477.73,197.93 476.00,202.82 476.00,210.94 C476.00,221.52 473.02,227.45 464.76,233.35 C452.62,242.01 440.29,246.02 403.00,253.44 C373.48,259.32 355.85,263.15 342.96,266.90 C353.70,263.50 364.66,261.12 404.90,253.03 C430.09,247.97 444.02,244.29 438.73,244.10 C436.36,244.01 436.02,243.65 436.40,241.56 C436.69,239.99 436.43,239.26 435.67,239.53 C435.48,239.59 435.17,239.39 434.79,238.98 C435.57,239.15 437.62,236.35 437.29,235.36 C437.08,234.74 437.62,233.52 438.49,232.65 C439.36,231.78 440.04,230.72 439.99,230.29 C439.85,228.89 445.34,216.52 446.44,215.77 C447.02,215.36 447.19,215.02 446.80,215.02 C446.42,215.01 448.70,209.49 451.88,202.75 C455.06,196.01 459.85,185.55 462.53,179.50 C465.22,173.45 467.88,168.17 468.45,167.77 C469.03,167.36 469.19,167.02 468.80,167.02 C468.12,167.00 473.81,153.99 474.93,153.00 C475.24,152.73 475.65,151.82 475.83,151.00 C476.52,147.86 480.28,140.00 481.09,140.00 C481.76,140.00 487.58,144.57 490.00,147.00 C492.71,149.71 499.17,155.00 499.79,155.00 C500.22,155.00 502.81,151.53 505.54,147.28 C513.90,134.29 532.72,105.68 534.99,102.50 C536.18,100.85 539.40,96.01 542.16,91.74 C544.91,87.48 547.47,84.17 547.83,84.39 C548.90,85.03 551.00,82.38 551.00,80.38 C551.00,79.12 556.86,85.75 563.05,94.00 C566.56,98.68 569.80,102.95 570.24,103.50 C572.33,106.09 584.89,123.35 589.89,130.50 C592.97,134.90 596.03,139.18 596.70,140.00 C597.37,140.82 600.46,145.01 603.57,149.31 C606.68,153.60 609.33,156.98 609.47,156.81 C622.22,141.32 630.12,132.05 631.02,131.49 C633.04,130.24 634.02,132.38 638.65,148.11 C641.14,156.58 645.11,169.80 647.48,177.50 C649.85,185.20 657.05,209.27 663.48,231.00 C669.92,252.73 677.15,277.02 679.57,285.00 C686.19,306.86 695.76,339.02 699.64,352.50 C701.54,359.10 705.15,371.25 707.66,379.50 C710.16,387.75 715.52,405.75 719.56,419.50 C723.60,433.25 728.17,448.33 729.70,453.00 L 732.50 461.50 L 749.25 461.77 ZM 548.73 133.46 C551.35,137.01 553.72,139.93 554.00,139.95 C554.28,139.97 556.24,137.28 558.37,133.98 C560.50,130.67 562.62,127.73 563.09,127.44 C563.56,127.15 567.58,129.46 572.02,132.58 C576.46,135.69 580.27,138.07 580.47,137.86 C580.83,137.50 578.57,134.30 563.63,114.00 C559.78,108.78 555.54,102.99 554.19,101.15 L 551.75 97.81 L 547.66 104.15 C545.41,107.64 539.59,116.51 534.72,123.85 C529.85,131.20 526.03,137.36 526.22,137.56 C526.42,137.75 529.39,136.13 532.83,133.95 C536.27,131.78 539.46,130.00 539.93,130.00 C540.40,130.00 541.05,129.32 541.36,128.50 C542.37,125.86 543.84,126.85 548.73,133.46 ZM 629.50 172.13 C631.65,174.95 633.57,176.79 633.76,176.22 C634.13,175.10 629.29,156.43 628.03,154.13 C627.51,153.16 625.21,155.55 620.34,162.13 C616.53,167.28 613.01,172.15 612.53,172.94 C612.04,173.73 614.67,172.72 618.36,170.69 C622.05,168.66 625.19,167.00 625.33,167.00 C625.47,167.00 627.35,169.31 629.50,172.13 ZM 371.92 121.62 C368.95,116.20 366.70,112.40 366.36,112.29 C365.88,112.13 359.45,123.58 352.08,137.75 C359.45,123.59 365.80,112.00 366.18,112.00 C366.51,112.00 368.95,116.11 371.92,121.62 ZM 434.47 238.61 C433.59,237.51 432.42,235.55 431.31,233.21 C430.57,231.66 428.92,228.43 426.76,224.28 C430.77,231.78 433.77,237.36 434.47,238.61 ZM 307.89 282.24 C303.68,285.09 300.41,288.08 298.10,291.18 C300.33,288.09 303.58,285.12 307.89,282.24 ZM 409.04 191.12 C405.47,184.50 402.04,178.11 398.75,171.96 C399.83,173.97 400.91,175.98 402.00,178.00 C403.59,180.95 406.11,185.66 409.04,191.12 ZM 294.14 304.55 C294.47,307.17 295.42,309.83 297.00,312.50 C295.39,309.79 294.44,307.17 294.14,304.55 Z" fill="rgb(34,59,87)"/>
<path d="M 229.00 461.24 C229.00,461.46 230.47,461.66 232.80,461.80 C223.04,461.93 209.75,462.00 193.39,462.00 C137.97,462.00 134.83,461.91 135.52,460.25 C135.92,459.29 139.33,447.02 143.11,433.00 C146.67,419.79 150.67,405.24 152.34,399.46 C148.93,411.33 136.00,459.49 136.00,460.41 C136.00,460.73 136.15,461.00 136.33,461.00 C137.84,461.00 187.75,439.36 195.50,435.34 C211.55,427.03 221.33,421.34 226.33,417.42 L 231.99 412.98 L 230.11 408.24 C229.81,407.48 229.41,406.48 228.96,405.33 C231.40,410.81 232.48,411.84 233.60,410.92 C236.15,408.80 238.00,404.32 237.98,400.30 C237.97,397.45 236.46,394.02 231.97,386.57 C224.63,374.41 223.31,370.18 224.93,364.02 C228.12,351.95 236.97,346.83 271.91,336.86 C290.09,331.67 294.01,330.12 297.75,326.71 C300.94,323.79 300.67,318.69 297.00,312.50 C295.39,309.79 294.44,307.17 294.14,304.55 C293.75,301.17 294.46,297.80 296.24,294.23 C296.76,293.20 297.38,292.18 298.10,291.18 C300.41,288.08 303.68,285.09 307.89,282.24 C314.97,277.50 324.94,272.99 338.09,268.51 C339.77,267.93 341.37,267.40 342.96,266.90 C355.85,263.15 373.48,259.32 403.00,253.44 C440.29,246.02 452.62,242.01 464.76,233.35 C473.02,227.45 476.00,221.52 476.00,210.94 C476.00,202.82 477.73,197.93 482.30,193.16 C487.31,187.94 491.77,185.96 511.25,180.37 C512.79,179.92 513.00,178.42 513.00,167.45 C513.00,174.35 513.34,180.00 513.75,180.00 C515.43,179.99 532.88,175.02 538.13,173.05 C547.13,169.68 557.48,161.84 560.98,155.73 C564.62,149.39 565.09,152.12 561.64,159.52 C558.73,165.77 551.24,172.63 542.85,176.73 C535.80,180.17 522.53,184.71 516.75,185.65 L 513.00 186.26 L 513.00 186.84 L 509.84 187.54 C503.27,188.98 494.45,193.75 490.72,197.89 C488.63,200.19 487.21,202.53 487.55,203.08 C487.89,203.64 487.73,204.63 487.20,205.29 C486.66,205.96 486.34,210.44 486.49,215.25 C486.64,220.21 486.35,224.00 485.82,224.00 C485.30,224.00 485.14,224.41 485.45,224.91 C485.76,225.42 485.67,225.98 485.26,226.16 C484.84,226.35 483.16,228.47 481.52,230.89 C477.83,236.31 467.22,243.88 458.26,247.48 C454.54,248.98 450.08,250.80 448.35,251.53 C446.62,252.27 443.63,253.17 441.70,253.53 C439.68,253.91 438.72,254.39 438.52,255.18 C437.53,254.75 434.59,255.26 430.59,256.62 C425.91,258.22 425.84,258.31 426.47,261.68 C426.64,262.58 427.99,267.18 430.06,273.92 C427.77,266.75 426.17,261.84 425.88,261.12 C425.67,260.58 425.54,260.14 425.26,259.82 C424.14,258.50 420.61,259.22 398.76,263.71 L 398.76 263.71 C397.65,263.94 396.48,264.18 395.27,264.43 C351.84,273.34 331.46,280.44 321.29,290.23 C314.36,296.89 313.72,302.17 318.57,312.87 C325.80,328.85 318.69,336.51 285.00,349.03 C262.89,357.25 255.00,362.53 255.00,369.13 C255.00,373.58 257.10,376.78 265.07,384.50 C275.63,394.71 278.00,398.84 277.99,406.95 C277.97,418.28 272.66,426.57 255.84,441.48 L 247.18 449.16 L 249.59 454.61 C249.63,454.69 249.66,454.77 249.70,454.85 C248.26,451.87 246.59,449.00 246.06,449.00 C245.47,449.00 245.00,449.43 245.00,449.95 C245.00,450.46 241.40,453.05 237.00,455.68 C232.60,458.32 229.00,460.82 229.00,461.24 ZM 560.79 91.04 C555.51,84.23 551.00,79.28 551.00,80.38 C551.00,82.38 548.90,85.03 547.83,84.39 C547.50,84.18 545.29,86.99 542.79,90.77 L 546.09 85.67 L 546.03 50.31 C545.96,17.37 546.08,14.91 547.73,14.27 C548.70,13.90 554.00,13.57 559.50,13.55 C569.11,13.50 569.81,13.65 577.50,17.37 C587.93,22.42 597.35,23.39 603.83,20.09 C607.09,18.42 608.15,18.24 608.54,19.25 C608.82,19.98 608.92,28.65 608.77,38.53 L 608.50 56.49 L 604.52 58.36 C598.58,61.16 587.34,60.29 580.00,56.46 C575.10,53.90 573.46,53.59 565.00,53.55 L 555.50 53.50 L 554.95 83.25 ZM 451.30 341.16 C450.37,338.24 449.55,335.66 448.86,333.51 C448.29,331.72 446.43,325.82 443.96,317.97 C447.06,327.73 449.74,336.21 451.30,341.16 ZM 489.69 461.25 C489.75,461.35 489.96,461.44 490.28,461.53 L 489.66 461.50 L 488.33 457.45 C489.09,459.68 489.57,461.02 489.69,461.25 ZM 474.00 413.07 C472.61,408.70 471.25,404.40 470.02,400.50 C467.93,393.83 465.73,386.83 463.54,379.90 C465.59,386.37 467.90,393.70 470.03,400.50 C471.34,404.68 472.68,408.90 474.00,413.07 ZM 500.98 456.44 C502.40,460.18 502.59,461.48 500.14,461.79 C502.54,461.37 502.37,460.09 500.98,456.44 ZM 211.39 361.27 C202.55,338.91 192.18,312.61 188.45,303.00 C191.12,309.88 199.80,331.92 207.73,352.00 C208.97,355.13 210.19,358.24 211.39,361.27 ZM 537.00 99.58 C536.14,100.86 535.43,101.89 534.99,102.50 C534.09,103.76 530.60,109.00 526.18,115.69 C530.59,109.01 534.09,103.76 534.99,102.50 C535.44,101.87 536.15,100.83 537.00,99.58 Z" fill="rgb(182,151,71)"/>

</g>
<g>
<path d="M 628.75 475.06 C553.26,475.09 473.05,475.21 450.50,475.34 C427.95,475.46 318.92,475.44 208.20,475.28 L 6.90 475.00 L 7.50 462.50 L 21.75 462.22 C30.97,462.04 36.00,461.57 36.00,460.88 C36.00,460.30 37.78,455.70 39.96,450.66 C42.13,445.62 50.08,426.65 57.62,408.50 C73.80,369.56 77.58,360.49 85.92,340.50 C89.37,332.25 93.78,321.67 95.72,317.00 C97.66,312.33 101.65,302.88 104.59,296.00 C110.08,283.14 122.59,253.30 131.00,233.00 C133.62,226.68 138.49,214.92 141.82,206.89 C145.15,198.85 149.66,188.27 151.83,183.39 C154.00,178.50 157.45,170.45 159.51,165.50 C161.56,160.55 165.61,150.88 168.50,144.00 C171.40,137.12 175.88,126.44 178.48,120.25 C181.07,114.06 183.52,109.00 183.93,109.00 C184.34,109.00 189.55,119.01 195.50,131.25 C201.46,143.49 220.70,182.98 238.27,219.00 C255.83,255.02 270.60,285.51 271.08,286.75 C271.56,287.99 272.33,289.00 272.79,289.00 C273.25,289.00 278.66,279.21 284.82,267.25 C297.37,242.85 309.02,220.37 326.68,186.50 C333.27,173.85 344.70,151.91 352.08,137.75 C359.45,123.58 365.88,112.13 366.36,112.29 C366.84,112.45 371.14,119.99 375.91,129.04 C386.68,149.48 400.17,174.70 415.98,204.00 C422.66,216.38 429.56,229.52 431.31,233.21 C433.09,236.95 435.02,239.75 435.67,239.53 C436.43,239.26 436.69,239.99 436.40,241.56 C436.02,243.65 436.36,244.01 438.73,244.10 C444.02,244.29 430.09,247.97 404.90,253.03 C358.68,262.32 351.09,264.08 338.09,268.51 C314.30,276.61 300.94,284.82 296.24,294.23 C293.08,300.57 293.31,306.29 297.00,312.50 C300.67,318.69 300.94,323.79 297.75,326.71 C294.01,330.12 290.09,331.67 271.91,336.86 C236.97,346.83 228.12,351.95 224.93,364.02 C223.31,370.18 224.63,374.41 231.97,386.57 C236.46,394.02 237.97,397.45 237.98,400.30 C238.00,404.32 236.15,408.80 233.60,410.92 C231.97,412.27 230.39,409.43 224.51,394.50 C223.21,391.20 215.66,372.08 207.73,352.00 C199.80,331.92 191.12,309.88 188.45,303.00 L 188.27 302.54 C184.04,291.66 183.33,289.84 182.85,289.90 C182.75,289.91 182.66,290.01 182.54,290.12 C182.29,290.37 178.91,302.26 175.02,316.54 C171.14,330.82 165.66,350.83 162.86,361.00 C160.05,371.17 157.20,381.75 156.51,384.50 C155.83,387.25 154.08,393.55 152.62,398.50 C151.17,403.45 146.89,418.98 143.11,433.00 C139.33,447.02 135.92,459.29 135.52,460.25 C134.83,461.91 137.97,462.00 193.39,462.00 C230.65,462.00 252.00,461.65 252.00,461.03 C252.00,460.49 250.92,457.61 249.59,454.61 L 247.18 449.16 L 255.84 441.48 C272.66,426.57 277.97,418.28 277.99,406.95 C278.00,398.84 275.63,394.71 265.07,384.50 C257.10,376.78 255.00,373.58 255.00,369.13 C255.00,362.53 262.89,357.25 285.00,349.03 C318.69,336.51 325.80,328.85 318.57,312.87 C313.72,302.17 314.36,296.89 321.29,290.23 C331.46,280.44 351.84,273.34 395.27,264.43 C396.48,264.18 397.65,263.94 398.76,263.71 C420.61,259.22 424.14,258.50 425.26,259.82 C425.54,260.14 425.67,260.58 425.88,261.12 C426.41,262.43 431.37,277.91 436.90,295.51 C442.43,313.12 447.81,330.22 448.86,333.51 C453.03,346.57 462.27,375.80 470.02,400.50 C474.52,414.80 480.77,434.38 483.93,444.00 L 489.66 461.50 L 495.99 461.80 C500.37,462.01 502.57,461.70 503.14,460.80 C503.76,459.82 503.97,459.81 503.98,460.74 C504.00,461.70 515.46,461.97 556.25,461.97 C584.99,461.98 643.94,461.98 687.25,461.99 L 766.00 462.00 L 766.00 475.00 ZM 287.00 461.67 C287.00,461.85 310.88,462.00 340.07,462.00 C391.53,462.00 393.12,461.94 392.54,460.12 C392.21,459.09 388.83,443.00 385.02,424.37 C381.21,405.74 376.93,385.10 375.50,378.50 C374.08,371.90 369.54,349.62 365.43,329.00 C361.31,308.38 357.68,290.65 357.36,289.61 C356.78,287.74 348.68,307.35 313.41,396.00 C305.43,416.08 297.38,436.10 295.52,440.50 C291.41,450.27 287.00,461.23 287.00,461.67 ZM 149.00 219.54 C149.00,220.15 171.10,201.10 172.20,199.54 C172.42,199.22 172.58,198.97 172.77,198.93 C173.34,198.82 174.25,200.53 178.10,207.81 C178.26,208.11 178.43,208.42 178.60,208.74 C181.29,213.82 183.73,217.98 184.00,217.99 C184.27,217.99 187.65,212.97 191.50,206.83 C195.35,200.69 198.98,195.50 199.58,195.31 C200.17,195.11 205.77,199.67 212.03,205.44 C218.29,211.21 223.54,215.79 223.70,215.63 C223.87,215.46 220.24,207.72 215.65,198.41 C211.05,189.11 202.45,171.38 196.52,159.00 C190.60,146.62 185.44,136.16 185.07,135.75 C184.40,135.00 182.67,138.75 172.49,163.00 C152.40,210.87 149.00,219.06 149.00,219.54 ZM 330.09 204.43 C329.57,205.72 337.39,199.19 346.89,190.39 L 354.23 183.60 L 356.03 186.05 C363.34,196.02 367.65,201.41 368.56,201.70 C369.15,201.89 371.40,198.89 373.56,195.04 C375.73,191.20 378.02,188.04 378.64,188.02 C379.80,188.00 392.59,196.88 398.94,202.11 C400.84,203.67 402.54,204.79 402.73,204.61 C402.91,204.42 398.17,195.10 392.19,183.88 C386.20,172.67 378.03,157.31 374.02,149.75 C370.01,142.19 366.44,136.00 366.08,136.00 C365.56,136.00 331.76,200.27 330.09,204.43 Z" fill="rgb(8,19,44)"/>
<path d="M 763.02 462.00 L 687.25 461.99 C663.05,461.99 633.98,461.98 608.02,461.98 L 607.76 401.25 L 607.50 340.50 L 513.00 339.98 L 513.00 461.67 C506.42,461.48 503.99,461.18 503.98,460.74 C503.97,459.81 503.76,459.82 503.14,460.80 C502.77,461.39 501.72,461.72 499.84,461.83 C502.61,461.57 502.46,460.33 500.98,456.44 C499.32,452.08 487.05,412.34 486.58,409.81 C486.34,408.54 486.06,407.39 485.95,407.25 C485.84,407.11 485.66,406.66 485.54,406.25 C485.43,405.84 484.78,404.15 484.09,402.50 C483.41,400.85 481.35,394.55 479.50,388.50 C477.65,382.45 472.74,366.76 468.58,353.64 C464.42,340.52 461.24,329.42 461.52,328.98 C461.79,328.53 461.65,328.02 461.20,327.84 C460.16,327.40 440.06,264.31 439.43,259.50 C439.28,258.40 439.09,257.50 439.01,257.50 C438.92,257.50 438.70,256.75 438.53,255.84 C438.29,254.64 439.17,254.00 441.70,253.53 C443.63,253.17 446.62,252.27 448.35,251.53 C450.08,250.80 454.54,248.98 458.26,247.48 C467.22,243.88 477.83,236.31 481.52,230.89 C483.16,228.47 484.84,226.35 485.26,226.16 C485.67,225.98 485.76,225.42 485.45,224.91 C485.14,224.41 485.30,224.00 485.82,224.00 C486.35,224.00 486.64,220.21 486.49,215.25 C486.34,210.44 486.66,205.96 487.20,205.29 C487.73,204.63 487.89,203.64 487.55,203.08 C487.21,202.53 488.63,200.19 490.72,197.89 C494.45,193.75 503.27,188.98 509.84,187.54 L 513.00 186.84 L 513.00 281.00 L 608.00 281.00 L 608.00 175.13 L 603.50 168.55 C601.03,164.94 599.00,161.78 599.00,161.53 C599.00,159.57 589.26,151.82 578.34,145.10 C571.10,140.64 564.98,137.00 564.74,137.00 C564.49,137.00 562.20,140.15 559.64,144.00 C557.08,147.85 554.65,150.98 554.24,150.96 C553.83,150.94 551.07,147.79 548.10,143.96 C545.13,140.13 542.21,137.01 541.60,137.02 C541.00,137.03 539.38,137.92 538.00,139.00 C536.62,140.08 535.17,140.97 534.77,140.98 C534.36,140.99 530.70,143.36 526.62,146.25 C522.54,149.14 517.81,152.27 516.10,153.20 L 513.00 154.91 L 513.00 167.39 C513.00,178.41 512.80,179.92 511.25,180.37 C491.77,185.96 487.31,187.94 482.30,193.16 C477.73,197.93 476.00,202.82 476.00,210.94 C476.00,221.52 473.02,227.45 464.76,233.35 C452.62,242.01 440.29,246.02 403.00,253.44 C373.48,259.32 355.85,263.15 342.96,266.90 C353.70,263.50 364.66,261.12 404.90,253.03 C430.09,247.97 444.02,244.29 438.73,244.10 C436.36,244.01 436.02,243.65 436.40,241.56 C436.69,239.99 436.43,239.26 435.67,239.53 C435.48,239.59 435.17,239.39 434.79,238.98 C435.57,239.15 437.62,236.35 437.29,235.36 C437.08,234.74 437.62,233.52 438.49,232.65 C439.36,231.78 440.04,230.72 439.99,230.29 C439.85,228.89 445.34,216.52 446.44,215.77 C447.02,215.36 447.19,215.02 446.80,215.02 C446.42,215.01 448.70,209.49 451.88,202.75 C455.06,196.01 459.85,185.55 462.53,179.50 C465.22,173.45 467.88,168.17 468.45,167.77 C469.03,167.36 469.19,167.02 468.80,167.02 C468.12,167.00 473.81,153.99 474.93,153.00 C475.24,152.73 475.65,151.82 475.83,151.00 C476.52,147.86 480.28,140.00 481.09,140.00 C481.76,140.00 487.58,144.57 490.00,147.00 C492.71,149.71 499.17,155.00 499.79,155.00 C500.22,155.00 502.81,151.53 505.54,147.28 C513.90,134.29 532.72,105.68 534.99,102.50 C536.18,100.85 539.40,96.01 542.16,91.74 C544.91,87.48 547.47,84.17 547.83,84.39 C548.90,85.03 551.00,82.38 551.00,80.38 C551.00,79.12 556.86,85.75 563.05,94.00 C566.56,98.68 569.80,102.95 570.24,103.50 C572.33,106.09 584.89,123.35 589.89,130.50 C592.97,134.90 596.03,139.18 596.70,140.00 C597.37,140.82 600.46,145.01 603.57,149.31 C606.68,153.60 609.33,156.98 609.47,156.81 C622.22,141.32 630.12,132.05 631.02,131.49 C633.04,130.24 634.02,132.38 638.65,148.11 C641.14,156.58 645.11,169.80 647.48,177.50 C649.85,185.20 657.05,209.27 663.48,231.00 C669.92,252.73 677.15,277.02 679.57,285.00 C686.19,306.86 695.76,339.02 699.64,352.50 C701.54,359.10 705.15,371.25 707.66,379.50 C710.16,387.75 715.52,405.75 719.56,419.50 C723.60,433.25 728.17,448.33 729.70,453.00 L 732.50 461.50 L 749.25 461.77 ZM 548.73 133.46 C551.35,137.01 553.72,139.93 554.00,139.95 C554.28,139.97 556.24,137.28 558.37,133.98 C560.50,130.67 562.62,127.73 563.09,127.44 C563.56,127.15 567.58,129.46 572.02,132.58 C576.46,135.69 580.27,138.07 580.47,137.86 C580.83,137.50 578.57,134.30 563.63,114.00 C559.78,108.78 555.54,102.99 554.19,101.15 L 551.75 97.81 L 547.66 104.15 C545.41,107.64 539.59,116.51 534.72,123.85 C529.85,131.20 526.03,137.36 526.22,137.56 C526.42,137.75 529.39,136.13 532.83,133.95 C536.27,131.78 539.46,130.00 539.93,130.00 C540.40,130.00 541.05,129.32 541.36,128.50 C542.37,125.86 543.84,126.85 548.73,133.46 ZM 629.50 172.13 C631.65,174.95 633.57,176.79 633.76,176.22 C634.13,175.10 629.29,156.43 628.03,154.13 C627.51,153.16 625.21,155.55 620.34,162.13 C616.53,167.28 613.01,172.15 612.53,172.94 C612.04,173.73 614.67,172.72 618.36,170.69 C622.05,168.66 625.19,167.00 625.33,167.00 C625.47,167.00 627.35,169.31 629.50,172.13 ZM 371.92 121.62 C368.95,116.20 366.70,112.40 366.36,112.29 C365.88,112.13 359.45,123.58 352.08,137.75 C359.45,123.59 365.80,112.00 366.18,112.00 C366.51,112.00 368.95,116.11 371.92,121.62 ZM 434.47 238.61 C433.59,237.51 432.42,235.55 431.31,233.21 C430.57,231.66 428.92,228.43 426.76,224.28 C430.77,231.78 433.77,237.36 434.47,238.61 ZM 307.89 282.24 C303.68,285.09 300.41,288.08 298.10,291.18 C300.33,288.09 303.58,285.12 307.89,282.24 ZM 409.04 191.12 C405.47,184.50 402.04,178.11 398.75,171.96 C399.83,173.97 400.91,175.98 402.00,178.00 C403.59,180.95 406.11,185.66 409.04,191.12 ZM 294.14 304.55 C294.47,307.17 295.42,309.83 297.00,312.50 C295.39,309.79 294.44,307.17 294.14,304.55 Z" fill="rgb(34,59,87)"/>
<path d="M 229.00 461.24 C229.00,461.46 230.47,461.66 232.80,461.80 C223.04,461.93 209.75,462.00 193.39,462.00 C137.97,462.00 134.83,461.91 135.52,460.25 C135.92,459.29 139.33,447.02 143.11,433.00 C146.67,419.79 150.67,405.24 152.34,399.46 C148.93,411.33 136.00,459.49 136.00,460.41 C136.00,460.73 136.15,461.00 136.33,461.00 C137.84,461.00 187.75,439.36 195.50,435.34 C211.55,427.03 221.33,421.34 226.33,417.42 L 231.99 412.98 L 230.11 408.24 C229.81,407.48 229.41,406.48 228.96,405.33 C231.40,410.81 232.48,411.84 233.60,410.92 C236.15,408.80 238.00,404.32 237.98,400.30 C237.97,397.45 236.46,394.02 231.97,386.57 C224.63,374.41 223.31,370.18 224.93,364.02 C228.12,351.95 236.97,346.83 271.91,336.86 C290.09,331.67 294.01,330.12 297.75,326.71 C300.94,323.79 300.67,318.69 297.00,312.50 C295.39,309.79 294.44,307.17 294.14,304.55 C293.75,301.17 294.46,297.80 296.24,294.23 C296.76,293.20 297.38,292.18 298.10,291.18 C300.41,288.08 303.68,285.09 307.89,282.24 C314.97,277.50 324.94,272.99 338.09,268.51 C339.77,267.93 341.37,267.40 342.96,266.90 C355.85,263.15 373.48,259.32 403.00,253.44 C440.29,246.02 452.62,242.01 464.76,233.35 C473.02,227.45 476.00,221.52 476.00,210.94 C476.00,202.82 477.73,197.93 482.30,193.16 C487.31,187.94 491.77,185.96 511.25,180.37 C512.79,179.92 513.00,178.42 513.00,167.45 C513.00,174.35 513.34,180.00 513.75,180.00 C515.43,179.99 532.88,175.02 538.13,173.05 C547.13,169.68 557.48,161.84 560.98,155.73 C564.62,149.39 565.09,152.12 561.64,159.52 C558.73,165.77 551.24,172.63 542.85,176.73 C535.80,180.17 522.53,184.71 516.75,185.65 L 513.00 186.26 L 513.00 186.84 L 509.84 187.54 C503.27,188.98 494.45,193.75 490.72,197.89 C488.63,200.19 487.21,202.53 487.55,203.08 C487.89,203.64 487.73,204.63 487.20,205.29 C486.66,205.96 486.34,210.44 486.49,215.25 C486.64,220.21 486.35,224.00 485.82,224.00 C485.30,224.00 485.14,224.41 485.45,224.91 C485.76,225.42 485.67,225.98 485.26,226.16 C484.84,226.35 483.16,228.47 481.52,230.89 C477.83,236.31 467.22,243.88 458.26,247.48 C454.54,248.98 450.08,250.80 448.35,251.53 C446.62,252.27 443.63,253.17 441.70,253.53 C439.68,253.91 438.72,254.39 438.52,255.18 C437.53,254.75 434.59,255.26 430.59,256.62 C425.91,258.22 425.84,258.31 426.47,261.68 C426.64,262.58 427.99,267.18 430.06,273.92 C427.77,266.75 426.17,261.84 425.88,261.12 C425.67,260.58 425.54,260.14 425.26,259.82 C424.14,258.50 420.61,259.22 398.76,263.71 L 398.76 263.71 C397.65,263.94 396.48,264.18 395.27,264.43 C351.84,273.34 331.46,280.44 321.29,290.23 C314.36,296.89 313.72,302.17 318.57,312.87 C325.80,328.85 318.69,336.51 285.00,349.03 C262.89,357.25 255.00,362.53 255.00,369.13 C255.00,373.58 257.10,376.78 265.07,384.50 C275.63,394.71 278.00,398.84 277.99,406.95 C277.97,418.28 272.66,426.57 255.84,441.48 L 247.18 449.16 L 249.59 454.61 C249.63,454.69 249.66,454.77 249.70,454.85 C248.26,451.87 246.59,449.00 246.06,449.00 C245.47,449.00 245.00,449.43 245.00,449.95 C245.00,450.46 241.40,453.05 237.00,455.68 C232.60,458.32 229.00,460.82 229.00,461.24 ZM 560.79 91.04 C555.51,84.23 551.00,79.28 551.00,80.38 C551.00,82.38 548.90,85.03 547.83,84.39 C547.50,84.18 545.29,86.99 542.79,90.77 L 546.09 85.67 L 546.03 50.31 C545.96,17.37 546.08,14.91 547.73,14.27 C548.70,13.90 554.00,13.57 559.50,13.55 C569.11,13.50 569.81,13.65 577.50,17.37 C587.93,22.42 597.35,23.39 603.83,20.09 C607.09,18.42 608.15,18.24 608.54,19.25 C608.82,19.98 608.92,28.65 608.77,38.53 L 608.50 56.49 L 604.52 58.36 C598.58,61.16 587.34,60.29 580.00,56.46 C575.10,53.90 573.46,53.59 565.00,53.55 L 555.50 53.50 L 554.95 83.25 ZM 451.30 341.16 C450.37,338.24 449.55,335.66 448.86,333.51 C448.29,331.72 446.43,325.82 443.96,317.97 C447.06,327.73 449.74,336.21 451.30,341.16 ZM 489.69 461.25 C489.75,461.35 489.96,461.44 490.28,461.53 L 489.66 461.50 L 488.33 457.45 C489.09,459.68 489.57,461.02 489.69,461.25 ZM 474.00 413.07 C472.61,408.70 471.25,404.40 470.02,400.50 C467.93,393.83 465.73,386.83 463.54,379.90 C465.59,386.37 467.90,393.70 470.03,400.50 C471.34,404.68 472.68,408.90 474.00,413.07 ZM 500.98 456.44 C502.40,460.18 502.59,461.48 500.14,461.79 C502.54,461.37 502.37,460.09 500.98,456.44 ZM 211.39 361.27 C202.55,338.91 192.18,312.61 188.45,303.00 C191.12,309.88 199.80,331.92 207.73,352.00 C208.97,355.13 210.19,358.24 211.39,361.27 ZM 537.00 99.58 C536.14,100.86 535.43,101.89 534.99,102.50 C534.09,103.76 530.60,109.00 526.18,115.69 C530.59,109.01 534.09,103.76 534.99,102.50 C535.44,101.87 536.15,100.83 537.00,99.58 Z" fill="rgb(182,151,71)"/>

</g>
</svg>